# xmcd
#
# Track frame offsets:
#	225
#	14551
#	29944
#	48894
#	65394
#	82576
#	97856
#	114493
#	137163
#	152639
#	165534
#	183777
#	197138
#	215804
#	237925
#
# Disc length: 3383 seconds
#
# Revision: 1
# Processed by: cddbd v1.4PL0 Copyright (c) Steve Scherf et al.
# Submitted via: audiograbber 1.82.02
#
DISCID=c50d340f
DTITLE=Peter Lewis Whitebird - Union Man
DYEAR=1997
DGENRE=Christian Country
TTITLE0=Just How You Feel
TTITLE1=I'm Not Restless
TTITLE2=Chasin' The Wind
TTITLE3=Daddy's Love
TTITLE4=I'm Believin' I'll Be Leavin'
TTITLE5=Livin' It Up Only Let Me Down
TTITLE6=Someone I Can Pour My Heart Into
TTITLE7=I Know You're Here
TTITLE8=Union Man
TTITLE9=A Little Bit Of Faith
TTITLE10=Reach For The Bible
TTITLE11=It's Who I Am
TTITLE12=The High Way
TTITLE13=The Blood Won't Wash Away
TTITLE14=It's Your Best That I Can't Do
EXTD=
EXTT0=
EXTT1=
EXTT2=
EXTT3=
EXTT4=
EXTT5=
EXTT6=
EXTT7=
EXTT8=
EXTT9=
EXTT10=
EXTT11=
EXTT12=
EXTT13=
EXTT14=
PLAYORDER=
